<svg xmlns="http://www.w3.org/2000/svg" version="1.1" xmlns:xlink="http://www.w3.org/1999/xlink" xmlns:svgjs="http://svgjs.dev/svgjs" width="1024" height="1024"><svg width="1024" height="1024" viewBox="0 0 1024 1024" fill="none" xmlns="http://www.w3.org/2000/svg">
<path d="M484 56H526L552 58L587 63L618 70L645 78L670 87L695 98L719 110L744 125L756 133L770 143L784 154L797 165L807 174L819 185L829 195L836 203L845 213L856 227L869 244L879 259L890 277L900 295L911 317L922 344L933 377L941 409L947 445L949 464L950 480V522L948 548L943 583L936 614L928 641L919 666L908 691L896 715L886 732L873 752L863 766L852 780L841 793L832 803L821 815L811 825L803 832L793 841L779 852L762 865L747 875L722 890L699 902L682 910L654 921L629 929L597 937L561 943L542 945L526 946H484L449 943L413 937L381 929L345 917L317 905L291 892L266 877L254 869L240 859L226 848L213 837L203 828L191 817L181 807L174 799L165 789L154 775L141 758L131 743L120 725L110 707L99 685L88 658L77 625L69 593L63 557L61 538L60 522V480L62 454L67 419L74 388L82 361L91 336L102 311L114 287L124 270L137 250L147 236L158 222L169 209L178 199L189 187L199 177L207 170L217 161L231 150L248 137L263 127L288 112L311 100L328 92L356 81L381 73L413 65L449 59L484 56Z" fill="#000008"></path>
<path d="M485 90H531L567 93L591 97L622 105L652 115L676 125L701 137L721 148L737 158L754 170L768 181L782 193L792 202L805 214L818 228L827 239L839 254L853 274L868 299L882 326L893 352L905 388L912 417L917 447L919 466L920 482V517L918 544L914 571L909 593L899 629L888 657L876 682L866 700L851 724L847 730L843 729L837 711L829 695L821 680L808 659L800 648L789 635L782 627L764 609L756 602L737 588L718 576L690 561L675 552L662 542L651 531L641 515L636 499V484L640 473L647 464L654 459L662 456L714 450H719L722 455L726 466L728 478V488L724 504L717 519V526L720 529H730L741 523L752 514L763 503L773 489L781 475L788 458L794 438L797 420L798 405V391L796 372L790 349L779 326L767 309L755 296L747 289L743 285L740 262L734 246L727 233L717 220L706 208L695 199L681 189L659 177L644 170L616 160L586 153L557 149L549 148L513 147L482 149L450 154L426 160L399 169L373 180L347 193L330 203L267 245L251 254L231 263L204 272L172 281L166 285L163 289L162 297L166 305L177 317L188 328L201 338L217 347L233 354L250 359L251 364L242 381L234 401L229 418L225 438L223 455V466L228 465L236 458L238 457L237 462L227 485L220 505L211 535L202 570L195 590L186 612L176 631L168 645L154 658L140 669L135 673L131 671L122 652L116 637L109 617L101 586L95 556L91 518V473L95 437L100 410L108 379L119 348L130 324L144 297L156 278L170 258L181 244L192 231L199 223L221 201L232 192L242 183L255 173L275 159L293 148L318 134L344 122L371 112L396 104L422 98L459 92L485 90Z" fill="#0193DC"></path>
<path d="M412 383H467L476 384H486L515 388L516 390H554L553 395V407L557 418L565 429L569 434L566 436L546 441L527 449L517 455L507 462L497 471L490 481L541 482L546 477L555 469L570 462L582 459L600 457H618L619 459L613 468L609 480L608 496L611 510L617 527L626 542L637 555L645 563L661 575L682 587L708 601L723 611L734 619L748 631L760 643L769 654L779 667V671L754 669L762 683L768 698L772 715L767 716L733 708L714 702L698 694L682 684L679 683L680 688V718L678 732L675 742L669 750L665 752L658 744L646 728L642 724L638 735L631 748L620 761L617 764L614 763L610 746L602 727L592 709L578 689L569 676L566 660L561 643L553 626L547 618H544L538 638L532 653L528 660L524 659L513 649L502 640L489 629L467 607L461 598L459 594L455 596L446 605L445 607H443V609L432 618L430 620L426 619L416 607L405 592L397 579L390 564L386 552L384 544L379 545L358 556L338 564L334 565L326 546L321 524L319 500L313 502L308 505L288 514L271 523L257 532L244 542H241L242 533L248 509L257 484L266 465L276 449L284 442L297 429L312 418L326 409L345 400L360 394L378 389L396 385L412 383Z" fill="#FAFCFE"></path>
<path d="M503 174H542L570 177L594 182L615 188L636 196L657 206L678 220L692 232L702 244L709 255L713 264L712 269L698 265L685 264L669 266L656 271L645 278L638 284L629 296L622 310L619 318L603 314L586 305L578 286L568 272L559 264L544 255L529 250L515 248L498 249L483 253L466 261L463 263H417L387 267L370 271L347 278L324 288L291 301L267 309L270 311L292 312L319 311L316 314L300 322L280 330L271 332H255L239 328L229 324L211 312L205 306V304L202 303L204 299L221 295L245 287L264 278L288 264L316 245L345 226L369 212L390 202L410 194L430 187L458 180L474 177L488 175L503 174Z" fill="#F8FBFE"></path>
<path d="M317 499L320 500L322 524L327 546L334 563V565L360 554L381 543L385 544L390 561L397 577L404 589L414 603L427 619L431 618L441 609H443V607H445L447 603L457 593L461 595L466 604L475 614L493 632L507 643L517 652L525 659H528L535 644L540 629L543 618L547 617L552 623L560 638L566 656L569 668L570 676V696L566 712L558 728L550 739L540 749L537 750L534 745L531 735L525 722V720L522 721L513 732L498 745L488 751H483L482 733L481 730L480 718L473 688L467 668L465 661H463L461 667L450 680L436 693L424 701L413 707H410L406 694L401 676L399 671L395 673L384 680L369 687L363 689H357V625L359 610L351 616L340 622L324 630L309 635L297 638L286 640H276L275 639V601L273 600L257 603L225 610L219 611L220 605L228 591L242 570L249 561L258 550L281 527L291 519L300 512L304 509H306V507L314 500L317 499Z" fill="#DA251C"></path>
<path d="M417 262H452L462 263L456 270L449 277L442 287L436 301L432 303L415 306L402 311L386 320L373 330L367 336L382 330L400 326L406 325H434L437 329L442 342L449 356L458 366L466 373L477 380L485 384V385H476L467 384H412L396 386L366 393L338 404L321 413L305 424L294 433L278 449L277 446L287 432L299 419L309 409L314 405L302 408L284 415L264 426L260 429H257L258 420L264 398L273 378L284 360L294 346L308 331L320 319L331 310H333V308L321 311L312 312L290 313L270 312L266 310L267 308L285 302L319 289L341 280L351 276L363 272L387 266L417 262Z" fill="#DA251C"></path>
<path d="M446 717L451 718L455 733L457 743L458 768L457 785L454 798L450 810L441 829L430 845L417 860L400 877L389 886L387 888L380 887L344 873L324 864L302 853L288 845L269 833L260 826L261 822L278 813L294 805L307 797L322 787L342 773L364 755L413 735L430 727L443 719L446 717Z" fill="#DA251C"></path>
<path d="M534 437H557L555 439L544 442L527 449L517 455L507 462L497 471L490 481L541 482L546 477L555 469L570 462L582 459L600 457H618L619 459L613 468L609 480L608 496V511L614 531L622 549L632 568L642 583L653 596L655 599L654 603L648 604H636L622 602L606 597L593 589L583 580L575 571L567 558L563 548V563L566 583L571 600L570 603L565 601L549 590L535 578L525 567L515 553L507 537L502 520V512H500L497 521L493 534L490 550L489 583H486L479 576L469 562L461 547L457 536L454 523V501L459 482L465 471L476 459L487 451L499 445L510 441L525 438L534 437Z" fill="#DEDEDE"></path>
<path d="M507 247L525 248L541 253L553 259L566 269L573 277L580 288L587 305V316L585 333L583 343L574 358L566 367L551 378L541 383L526 387L516 388H506L486 385L472 378L461 370L450 359L443 347L437 332L434 326H406L390 329L377 333L368 337L366 336L375 327L389 317L405 309L415 305L435 301L441 287L450 275L463 262L478 254L489 250L498 248L507 247Z" fill="#000008"></path>
<path d="M322 656H330V668L329 670L328 681L323 699L318 712L310 726L302 737L293 747L285 754H283V756L266 768L252 777L240 784L224 792L217 791L208 781L198 772L191 764L182 754L174 744L171 740V738H169L158 722L151 711L149 708V702L174 694L183 691L201 684L211 681L222 676L238 671L247 669L280 665L304 661L313 658L322 656Z" fill="#DA251C"></path>
<path d="M683 289L694 290L709 295L720 301L731 309L742 319L753 333L762 349L768 365L771 378L772 386V413L769 432L763 451L757 466L754 469H752L746 449L738 434L730 424L722 415L707 404L692 396L671 389L658 386L626 384H604V381L617 372L625 364L633 352L642 329L649 313L656 302L667 294L677 290L683 289Z" fill="#FEA201"></path>
<path d="M578 750L583 755L590 765L596 777L603 798L605 808L607 829V845L605 865L601 882L596 894L590 897L573 901L549 904L525 905H501L471 904L444 902L437 901V899L450 890L463 879L475 868L488 855L497 844L507 832L519 815L527 802L533 797L544 789L556 778L567 766L577 751L578 750Z" fill="#DA251C"></path>
<path d="M702 729L709 731L721 740L734 752L743 762L754 777L762 790L770 805L769 810L762 817L751 826L737 837L719 848L703 857L684 866L675 869H672L675 844V810L674 796L684 782L691 767L695 757L701 731L702 729Z" fill="#DA251C"></path>
<path d="M683 289L694 290L709 295L720 301L731 309L742 319L753 333L762 349L768 365L771 378L772 386V413L769 432L763 451L758 464H757V456L759 447L760 437V404L758 392L754 377L746 359L738 347L729 337L721 329L706 319L689 311L672 306L655 304L660 299L669 293L677 290L683 289Z" fill="#EDF6FE"></path>
<path d="M480 283H482V286L490 283L498 284L505 290L507 295L506 304L501 310L497 312H488L483 309L479 304V302H477V314L480 324L487 335L495 341L503 344L507 345H518L528 342L539 334L546 323L548 315V301L545 288L549 289L556 300L560 311V326L555 339L547 349L539 355L529 360L520 362H503L491 359L481 353L473 346L467 337L463 326L462 312L465 301L471 291L478 284L480 283Z" fill="#FFA734"></path>
<path d="M669 247H684L694 250L703 255L709 260L711 259L713 264L712 269L698 265L685 264L669 266L656 271L645 278L638 284L629 296L622 310L619 318L603 314L586 305L578 286L568 272L559 264L544 255L536 252L539 250L543 249L562 257L576 267L596 280L607 284L613 285H624L629 281L635 270L646 258L657 251L669 247Z" fill="#FAFCFE"></path>
<path d="M587 305L603 313L617 317L618 321L614 336L607 348L598 356L593 358L591 362L569 376L562 382L554 390L549 391H516V387L530 385L543 381L551 377L567 365L575 355L582 343L585 324L587 305Z" fill="#DA251C"></path>
<path d="M582 407H620L648 409L666 413L686 420L692 423V425L690 426L658 429L642 430H612L599 426L591 421L584 414L581 408L582 407Z" fill="#FE9305"></path>
<path d="M490 283L498 284L505 290L507 295L506 304L501 310L497 312H488L483 309L478 302L480 292L482 286L490 283Z" fill="#E3F1FE"></path>
<path d="M672 333H679L685 337L687 341V348L683 354L679 356H672L666 352L664 348V341L667 336L672 333Z" fill="#000008"></path>
</svg><style>@media (prefers-color-scheme: light) { :root { filter: none; } }
@media (prefers-color-scheme: dark) { :root { filter: none; } }
</style></svg>